<svg width="16" height="16" viewBox="0 0 16 16" fill="none" xmlns="http://www.w3.org/2000/svg">
<path fill-rule="evenodd" clip-rule="evenodd" d="M8.60061 1.00035C10.2006 1.10035 11.7006 1.90035 12.8006 3.00035C14.1006 4.40035 14.8006 6.10035 14.8006 8.10035C14.8006 9.70035 14.2006 11.2004 13.2006 12.5004C12.2006 13.7004 10.8006 14.6004 9.20061 14.9004C7.60061 15.2004 6.00061 15.0004 4.60061 14.2004C3.20061 13.4004 2.10061 12.2004 1.50061 10.7004C0.900608 9.20035 0.800608 7.50035 1.30061 6.00035C1.80061 4.40035 2.70061 3.10035 4.10061 2.20035C5.40061 1.30035 7.00061 0.900352 8.60061 1.00035ZM9.10061 13.9004C10.4006 13.6004 11.6006 12.9004 12.5006 11.8004C13.3006 10.7004 13.8006 9.40035 13.7006 8.00035C13.7006 6.40035 13.1006 4.80035 12.0006 3.70035C11.0006 2.70035 9.80061 2.10035 8.40061 2.00035C7.10061 1.90035 5.70061 2.20035 4.60061 3.00035C3.50061 3.80035 2.70061 4.90035 2.30061 6.30035C1.90061 7.60035 1.90061 9.00035 2.50061 10.3004C3.10061 11.6004 4.00061 12.6004 5.20061 13.3004C6.40061 14.0004 7.80061 14.2004 9.10061 13.9004ZM7.90061 7.50035L10.3006 5.00035L11.0006 5.70035L8.60061 8.20035L11.0006 10.7004L10.3006 11.4004L7.90061 8.90035L5.50061 11.4004L4.80061 10.7004L7.20061 8.20035L4.80061 5.70035L5.50061 5.00035L7.90061 7.50035Z" fill="#EB4B5B"/>
</svg>
