<svg width="16" height="16" viewBox="0 0 16 16" fill="none" xmlns="http://www.w3.org/2000/svg">
<g clip-path="url(#clip0_1548_34856)">
<path fill-rule="evenodd" clip-rule="evenodd" d="M7.55189 0.53736C7.01102 0.584752 6.67941 0.633296 6.30613 0.719664C4.48619 1.14078 2.87291 2.2485 1.82062 3.79952C0.9684 5.05565 0.52832 6.48592 0.52832 7.99952C0.52832 9.5747 1.00533 11.0601 1.92584 12.3515C2.9739 13.8218 4.56451 14.8817 6.32789 15.2848C7.52859 15.5592 8.84178 15.528 10.0159 15.1972C11.7822 14.6995 13.2871 13.5851 14.2908 12.0315C14.5618 11.6121 14.7564 11.2302 14.9595 10.7195C15.5006 9.3591 15.6175 7.78184 15.2851 6.32752C14.9095 4.68414 13.967 3.19318 12.6399 2.14274C11.5214 1.25741 10.2176 0.724465 8.78389 0.566561C8.56474 0.542417 7.72202 0.522448 7.55189 0.53736ZM7.59189 1.74474C6.14992 1.83922 4.78507 2.42749 3.73939 3.40522C3.03149 4.06712 2.50784 4.8347 2.16136 5.71834C1.83702 6.5455 1.6905 7.45517 1.74203 8.32146C1.79709 9.24701 1.9948 9.99942 2.39229 10.7961C2.73726 11.4876 3.16099 12.053 3.73939 12.5938C4.61429 13.4119 5.74605 13.9742 6.91989 14.1741C7.21483 14.2243 7.32558 14.2365 7.67589 14.2573C8.55904 14.3097 9.4607 14.1613 10.3241 13.8213C10.5762 13.722 11.0045 13.5096 11.2399 13.3672C11.9729 12.9237 12.6392 12.2992 13.1429 11.5835C13.9309 10.4638 14.3384 9.03517 14.2576 7.67552C14.2471 7.49733 14.2314 7.29752 14.2228 7.23152C14.0494 5.90139 13.4856 4.69242 12.5942 3.73902C12.0534 3.16062 11.4879 2.7369 10.7965 2.39192C9.79442 1.89197 8.7044 1.67184 7.59189 1.74474ZM10.934 5.03795C10.8468 5.06008 10.7343 5.12222 10.6762 5.18026C10.6453 5.21118 9.75266 6.32075 8.69256 7.646C7.63245 8.97123 6.75909 10.0577 6.75176 10.0604C6.74442 10.0631 6.36179 9.78299 5.90149 9.43787C5.44118 9.09277 5.0255 8.79251 4.97774 8.77064C4.73189 8.6581 4.4261 8.7409 4.26139 8.96462C4.17056 9.088 4.13794 9.20054 4.14726 9.35816C4.15531 9.49391 4.19384 9.59698 4.27469 9.69906C4.33117 9.77037 6.43363 11.3561 6.58486 11.4415C6.66026 11.484 6.69811 11.4943 6.80056 11.5003C6.95629 11.5093 7.05926 11.485 7.17627 11.4119C7.25859 11.3604 7.48333 11.0852 9.42626 8.65709C10.7196 7.04078 11.6022 5.92424 11.6283 5.87152C11.6674 5.79256 11.6719 5.76626 11.6718 5.61552C11.6717 5.45506 11.6693 5.44304 11.6176 5.34749C11.5084 5.14587 11.332 5.03466 11.1119 5.02874C11.0415 5.02685 10.9614 5.03099 10.934 5.03795Z" fill="#7B8588"/>
</g>
<defs>
<clipPath id="clip0_1548_34856">
<rect width="16" height="16" fill="white"/>
</clipPath>
</defs>
</svg>
