<svg width="16" height="16" viewBox="0 0 16 16" fill="none" xmlns="http://www.w3.org/2000/svg">
<g clip-path="url(#clip0_1548_18394)">
<path fill-rule="evenodd" clip-rule="evenodd" d="M7.55287 0.53736C7.012 0.584752 6.68039 0.633296 6.30711 0.719664C4.48717 1.14078 2.87389 2.2485 1.8216 3.79952C0.969377 5.05565 0.529297 6.48592 0.529297 7.99952C0.529297 9.5747 1.0063 11.0601 1.92682 12.3515C2.97488 13.8218 4.56549 14.8817 6.32886 15.2848C7.52957 15.5592 8.84275 15.528 10.0169 15.1972C11.7832 14.6995 13.2881 13.5851 14.2918 12.0315C14.5628 11.6121 14.7574 11.2302 14.9605 10.7195C15.5016 9.3591 15.6185 7.78184 15.2861 6.32752C14.9105 4.68414 13.968 3.19318 12.6409 2.14274C11.5223 1.25741 10.2185 0.724465 8.78487 0.566561C8.56571 0.542417 7.72299 0.522448 7.55287 0.53736ZM7.59286 1.74474C6.1509 1.83922 4.78605 2.42749 3.74037 3.40522C3.03246 4.06712 2.50882 4.8347 2.16234 5.71834C1.838 6.5455 1.69147 7.45517 1.74301 8.32146C1.79806 9.24701 1.99578 9.99942 2.39326 10.7961C2.73824 11.4876 3.16197 12.053 3.74037 12.5938C4.61526 13.4119 5.74702 13.9742 6.92086 14.1741C7.21581 14.2243 7.32656 14.2365 7.67687 14.2573C8.56002 14.3097 9.46168 14.1613 10.325 13.8213C10.5772 13.722 11.0055 13.5096 11.2409 13.3672C11.9739 12.9237 12.6402 12.2992 13.1439 11.5835C13.9319 10.4638 14.3394 9.03517 14.2586 7.67552C14.248 7.49733 14.2323 7.29752 14.2237 7.23152C14.0504 5.90139 13.4866 4.69242 12.5952 3.73902C12.0544 3.16062 11.4889 2.7369 10.7974 2.39192C9.79539 1.89197 8.70538 1.67184 7.59286 1.74474ZM10.935 5.03795C10.8478 5.06008 10.7352 5.12222 10.6772 5.18026C10.6463 5.21118 9.75363 6.32075 8.69354 7.646C7.63343 8.97123 6.76007 10.0577 6.75274 10.0604C6.74539 10.0631 6.36277 9.78299 5.90246 9.43787C5.44216 9.09277 5.02648 8.79251 4.97872 8.77064C4.73286 8.6581 4.42707 8.7409 4.26237 8.96462C4.17154 9.088 4.13891 9.20054 4.14824 9.35816C4.15629 9.49391 4.19482 9.59698 4.27567 9.69906C4.33214 9.77037 6.43461 11.3561 6.58584 11.4415C6.66123 11.484 6.69909 11.4943 6.80154 11.5003C6.95726 11.5093 7.06024 11.485 7.17725 11.4119C7.25957 11.3604 7.48431 11.0852 9.42723 8.65709C10.7206 7.04078 11.6032 5.92424 11.6293 5.87152C11.6684 5.79256 11.6728 5.76626 11.6728 5.61552C11.6727 5.45506 11.6703 5.44304 11.6185 5.34749C11.5094 5.14587 11.333 5.03466 11.1129 5.02874C11.0425 5.02685 10.9624 5.03099 10.935 5.03795Z" fill="#44CB93"/>
</g>
<defs>
<clipPath id="clip0_1548_18394">
<rect width="16" height="16" fill="white"/>
</clipPath>
</defs>
</svg>
