<svg width="16" height="16" viewBox="0 0 16 16" fill="none" xmlns="http://www.w3.org/2000/svg">
<g clip-path="url(#clip0_1548_18384)">
<path fill-rule="evenodd" clip-rule="evenodd" d="M7.55189 0.53736C7.01102 0.584752 6.67941 0.633296 6.30613 0.719664C4.48619 1.14078 2.87291 2.2485 1.82062 3.79952C0.9684 5.05565 0.52832 6.48592 0.52832 7.99952C0.52832 9.5747 1.00533 11.0601 1.92584 12.3515C2.9739 13.8218 4.56451 14.8817 6.32789 15.2848C7.52859 15.5592 8.84178 15.528 10.0159 15.1972C11.7822 14.6995 13.2871 13.5851 14.2908 12.0315C14.5618 11.6121 14.7564 11.2302 14.9595 10.7195C15.5006 9.3591 15.6175 7.78184 15.2851 6.32752C14.9095 4.68414 13.967 3.19318 12.6399 2.14274C11.5214 1.25741 10.2176 0.724465 8.78389 0.566561C8.56474 0.542417 7.72202 0.522448 7.55189 0.53736ZM8.11227 5.95426C8.31603 5.92837 8.4894 5.83525 8.64236 5.66954C8.8355 5.46031 8.9075 5.17295 8.83928 4.88352C8.78932 4.67156 8.6295 4.45984 8.43078 4.34232C8.32577 4.28024 8.12494 4.22604 7.99992 4.22604C7.87489 4.22604 7.67406 4.28024 7.56905 4.34232C7.37033 4.45984 7.21051 4.67156 7.16056 4.88352C7.09233 5.17295 7.16433 5.46031 7.35747 5.66954C7.55998 5.88893 7.82868 5.99029 8.11227 5.95426ZM8.59116 11.2638C8.55132 11.5093 8.35836 11.715 8.1248 11.761C8.02761 11.7801 7.98419 11.7803 7.88782 11.762C7.64104 11.7152 7.44963 11.5162 7.40867 11.2638C7.38782 11.1353 7.38636 7.79684 7.40712 7.65341C7.43579 7.45509 7.55798 7.28844 7.74062 7.19853C7.83854 7.15032 7.85971 7.14604 7.99992 7.14604C8.14012 7.14604 8.16129 7.15032 8.25921 7.19853C8.44185 7.28844 8.56404 7.45509 8.59272 7.65341C8.61347 7.79684 8.61201 11.1353 8.59116 11.2638Z" fill="#EB4B5B"/>
</g>
<defs>
<clipPath id="clip0_1548_18384">
<rect width="16" height="16" fill="white"/>
</clipPath>
</defs>
</svg>
