<svg width="16" height="16" viewBox="0 0 16 16" fill="none" xmlns="http://www.w3.org/2000/svg">
<path opacity="0.2" fill-rule="evenodd" clip-rule="evenodd" d="M7.99967 12.6663C10.577 12.6663 12.6663 10.577 12.6663 7.99967C12.6663 5.42235 10.577 3.33301 7.99967 3.33301C5.42235 3.33301 3.33301 5.42235 3.33301 7.99967C3.33301 10.577 5.42235 12.6663 7.99967 12.6663ZM7.99967 14.6663C11.6815 14.6663 14.6663 11.6815 14.6663 7.99967C14.6663 4.31777 11.6815 1.33301 7.99967 1.33301C4.31777 1.33301 1.33301 4.31777 1.33301 7.99967C1.33301 11.6815 4.31777 14.6663 7.99967 14.6663Z" fill="#B3BDC0"/>
<path d="M1.33301 7.99967C1.33301 4.31777 4.31777 1.33301 7.99967 1.33301V3.33301C5.42235 3.33301 3.33301 5.42235 3.33301 7.99967H1.33301Z" fill="#B3BDC0"/>
</svg>
