<svg width="20" height="20" viewBox="0 0 20 20" fill="none" xmlns="http://www.w3.org/2000/svg">
<g clip-path="url(#clip0_1548_16398)">
<path fill-rule="evenodd" clip-rule="evenodd" d="M9.4401 0.672433C8.76402 0.731673 8.3495 0.792353 7.8829 0.900313C5.60798 1.42671 3.59138 2.81135 2.27602 4.75013C1.21074 6.32029 0.660645 8.10813 0.660645 10.0001C0.660645 11.9691 1.2569 13.8259 2.40754 15.4401C3.71762 17.278 5.70588 18.6029 7.9101 19.1067C9.41098 19.4497 11.0525 19.4108 12.5201 18.9972C14.728 18.3751 16.6091 16.9821 17.8637 15.0401C18.2025 14.5159 18.4458 14.0385 18.6997 13.4001C19.376 11.6996 19.5222 9.72803 19.1066 7.91013C18.6371 5.85591 17.459 3.99221 15.8001 2.67915C14.4019 1.57249 12.7722 0.906313 10.9801 0.708933C10.7062 0.678753 9.65276 0.653793 9.4401 0.672433ZM13.3455 6.47605C13.4181 6.40351 13.5588 6.32583 13.6678 6.29817C13.702 6.28947 13.8021 6.28429 13.8901 6.28665C14.1652 6.29405 14.3857 6.43307 14.5222 6.68509C14.5868 6.80453 14.5899 6.81955 14.59 7.02013C14.5901 7.20855 14.5845 7.24143 14.5357 7.34013C14.503 7.40603 13.3997 8.80171 11.7831 10.8221C9.3544 13.8572 9.07348 14.2012 8.97058 14.2656C8.82432 14.357 8.6956 14.3873 8.50094 14.3761C8.37288 14.3687 8.32556 14.3558 8.23132 14.3026C8.04228 14.1959 5.4142 12.2137 5.3436 12.1246C5.24254 11.997 5.19438 11.8681 5.18432 11.6984C5.17266 11.5014 5.21344 11.3607 5.32698 11.2065C5.53286 10.9269 5.9151 10.8234 6.22242 10.964C6.28212 10.9914 6.80172 11.3667 7.3771 11.7981C7.95248 12.2295 8.43076 12.5797 8.43994 12.5763C8.4491 12.5729 9.5408 11.2148 10.8659 9.55823C12.1911 7.90167 13.3069 6.51471 13.3455 6.47605Z" fill="#44CB93"/>
</g>
<defs>
<clipPath id="clip0_1548_16398">
<rect width="20" height="20" fill="white"/>
</clipPath>
</defs>
</svg>
