<svg width="20" height="20" viewBox="0 0 20 20" fill="none" xmlns="http://www.w3.org/2000/svg">
<g clip-path="url(#clip0_2425_22200)">
<path fill-rule="evenodd" clip-rule="evenodd" d="M9.43962 0.672433C8.76354 0.731673 8.34902 0.792353 7.88242 0.900313C5.6075 1.42671 3.5909 2.81135 2.27554 4.75013C1.21026 6.32029 0.660156 8.10813 0.660156 10.0001C0.660156 11.9691 1.25642 13.8259 2.40706 15.4401C3.71714 17.278 5.7054 18.6029 7.90962 19.1067C9.4105 19.4497 11.052 19.4108 12.5196 18.9972C14.7275 18.3751 16.6086 16.9821 17.8633 15.0401C18.202 14.5159 18.4453 14.0385 18.6992 13.4001C19.3755 11.6996 19.5217 9.72803 19.1062 7.91013C18.6366 5.85591 17.4586 3.99221 15.7996 2.67915C14.4015 1.57249 12.7717 0.906313 10.9796 0.708933C10.7057 0.678753 9.65228 0.653793 9.43962 0.672433ZM9.84352 5.30147C9.55156 5.35895 9.31036 5.61607 9.26056 5.92289C9.2345 6.08357 9.23268 10.2566 9.25862 10.4359C9.29446 10.6838 9.4472 10.8921 9.6755 11.0045C9.7979 11.0648 9.82436 11.0701 9.99962 11.0701C10.1749 11.0701 10.2013 11.0648 10.3237 11.0045C10.552 10.8921 10.7048 10.6838 10.7406 10.4359C10.7666 10.2566 10.7647 6.08357 10.7387 5.92289C10.6875 5.60745 10.4482 5.35865 10.1397 5.30015C10.0193 5.27731 9.965 5.27755 9.84352 5.30147ZM9.85918 12.5599C9.60448 12.5922 9.38776 12.7086 9.19656 12.9158C8.95514 13.1773 8.86514 13.5365 8.95042 13.8983C9.01286 14.1632 9.21264 14.4279 9.46104 14.5748C9.5923 14.6524 9.84334 14.7201 9.99962 14.7201C10.1559 14.7201 10.4069 14.6524 10.5382 14.5748C10.7866 14.4279 10.9864 14.1632 11.0488 13.8983C11.1341 13.5365 11.0441 13.1773 10.8027 12.9158C10.5495 12.6415 10.2137 12.5148 9.85918 12.5599Z" fill="#EB4B5B"/>
</g>
<defs>
<clipPath id="clip0_2425_22200">
<rect width="20" height="20" fill="white"/>
</clipPath>
</defs>
</svg>
